TITLE ""
FILE "1Q_t_1119-1128.mp3" MP3
  TRACK 01 AUDIO
    TITLE "1Q_t_1119-1128_01"
    INDEX 01 00:00:00
  TRACK 02 AUDIO
    TITLE "1Q_t_1119-1128_02"
    INDEX 01 00:00:08
  TRACK 03 AUDIO
    TITLE "1Q_t_1119-1128_03"
    INDEX 01 00:01:14
  TRACK 04 AUDIO
    TITLE "1Q_t_1119-1128_04"
    INDEX 01 00:01:57
  TRACK 05 AUDIO
    TITLE "1Q_t_1119-1128_05"
    INDEX 01 00:03:07
  TRACK 06 AUDIO
    TITLE "1Q_t_1119-1128_06"
    INDEX 01 00:03:15
  TRACK 07 AUDIO
    TITLE "1Q_t_1119-1128_07"
    INDEX 01 00:04:12
  TRACK 08 AUDIO
    TITLE "1Q_t_1119-1128_08"
    INDEX 01 00:04:16
  TRACK 09 AUDIO
    TITLE "1Q_t_1119-1128_09"
    INDEX 01 00:08:53
  TRACK 10 AUDIO
    TITLE "1Q_t_1119-1128_10"
    INDEX 01 00:09:25
  TRACK 11 AUDIO
    TITLE "1Q_t_1119-1128_11"
    INDEX 01 00:10:40
  TRACK 12 AUDIO
    TITLE "1Q_t_1119-1128_12"
    INDEX 01 00:10:48
  TRACK 13 AUDIO
    TITLE "1Q_t_1119-1128_13"
    INDEX 01 00:12:15
  TRACK 14 AUDIO
    TITLE "1Q_t_1119-1128_14"
    INDEX 01 00:12:23
  TRACK 15 AUDIO
    TITLE "1Q_t_1119-1128_15"
    INDEX 01 00:16:17
  TRACK 16 AUDIO
    TITLE "1Q_t_1119-1128_16"
    INDEX 01 00:16:62
  TRACK 17 AUDIO
    TITLE "1Q_t_1119-1128_17"
    INDEX 01 00:18:02
  TRACK 18 AUDIO
    TITLE "1Q_t_1119-1128_18"
    INDEX 01 00:18:10
  TRACK 19 AUDIO
    TITLE "1Q_t_1119-1128_19"
    INDEX 01 00:19:37
  TRACK 20 AUDIO
    TITLE "1Q_t_1119-1128_20"
    INDEX 01 00:19:43
  TRACK 21 AUDIO
    TITLE "1Q_t_1119-1128_21"
    INDEX 01 00:23:51
  TRACK 22 AUDIO
    TITLE "1Q_t_1119-1128_22"
    INDEX 01 00:24:21
  TRACK 23 AUDIO
    TITLE "1Q_t_1119-1128_23"
    INDEX 01 00:25:40
  TRACK 24 AUDIO
    TITLE "1Q_t_1119-1128_24"
    INDEX 01 00:25:47
  TRACK 25 AUDIO
    TITLE "1Q_t_1119-1128_25"
    INDEX 01 00:27:52
  TRACK 26 AUDIO
    TITLE "1Q_t_1119-1128_26"
    INDEX 01 00:27:58
  TRACK 27 AUDIO
    TITLE "1Q_t_1119-1128_27"
    INDEX 01 00:32:08
  TRACK 28 AUDIO
    TITLE "1Q_t_1119-1128_28"
    INDEX 01 00:32:53
  TRACK 29 AUDIO
    TITLE "1Q_t_1119-1128_29"
    INDEX 01 00:33:74
  TRACK 30 AUDIO
    TITLE "1Q_t_1119-1128_30"
    INDEX 01 00:34:05
  TRACK 31 AUDIO
    TITLE "1Q_t_1119-1128_31"
    INDEX 01 00:35:16
  TRACK 32 AUDIO
    TITLE "1Q_t_1119-1128_32"
    INDEX 01 00:35:22
  TRACK 33 AUDIO
    TITLE "1Q_t_1119-1128_33"
    INDEX 01 00:38:68
  TRACK 34 AUDIO
    TITLE "1Q_t_1119-1128_34"
    INDEX 01 00:39:38
  TRACK 35 AUDIO
    TITLE "1Q_t_1119-1128_35"
    INDEX 01 00:40:47
  TRACK 36 AUDIO
    TITLE "1Q_t_1119-1128_36"
    INDEX 01 00:40:55
  TRACK 37 AUDIO
    TITLE "1Q_t_1119-1128_37"
    INDEX 01 00:43:22
  TRACK 38 AUDIO
    TITLE "1Q_t_1119-1128_38"
    INDEX 01 00:43:28
  TRACK 39 AUDIO
    TITLE "1Q_t_1119-1128_39"
    INDEX 01 00:47:69
  TRACK 40 AUDIO
    TITLE "1Q_t_1119-1128_40"
    INDEX 01 00:48:41
  TRACK 41 AUDIO
    TITLE "1Q_t_1119-1128_41"
    INDEX 01 00:49:36
  TRACK 42 AUDIO
    TITLE "1Q_t_1119-1128_42"
    INDEX 01 00:49:44
  TRACK 43 AUDIO
    TITLE "1Q_t_1119-1128_43"
    INDEX 01 00:50:51
  TRACK 44 AUDIO
    TITLE "1Q_t_1119-1128_44"
    INDEX 01 00:50:57
  TRACK 45 AUDIO
    TITLE "1Q_t_1119-1128_45"
    INDEX 01 00:55:03
  TRACK 46 AUDIO
    TITLE "1Q_t_1119-1128_46"
    INDEX 01 00:55:49
  TRACK 47 AUDIO
    TITLE "1Q_t_1119-1128_47"
    INDEX 01 00:56:50
  TRACK 48 AUDIO
    TITLE "1Q_t_1119-1128_48"
    INDEX 01 00:56:58
  TRACK 49 AUDIO
    TITLE "1Q_t_1119-1128_49"
    INDEX 01 00:59:35
  TRACK 50 AUDIO
    TITLE "1Q_t_1119-1128_50"
    INDEX 01 00:59:40
  TRACK 51 AUDIO
    TITLE "1Q_t_1119-1128_51"
    INDEX 01 01:04:26
  TRACK 52 AUDIO
    TITLE "1Q_t_1119-1128_52"
    INDEX 01 01:04:71
  TRACK 53 AUDIO
    TITLE "1Q_t_1119-1128_53"
    INDEX 01 01:06:13
  TRACK 54 AUDIO
    TITLE "1Q_t_1119-1128_54"
    INDEX 01 01:06:21
  TRACK 55 AUDIO
    TITLE "1Q_t_1119-1128_55"
    INDEX 01 01:07:24
  TRACK 56 AUDIO
    TITLE "1Q_t_1119-1128_56"
    INDEX 01 01:07:30
  TRACK 57 AUDIO
    TITLE "1Q_t_1119-1128_57"
    INDEX 01 01:12:02
  TRACK 58 AUDIO
    TITLE "1Q_t_1119-1128_58"
    INDEX 01 01:12:47
  TRACK 59 AUDIO
    TITLE "1Q_t_1119-1128_59"
    INDEX 01 01:13:43
  TRACK 60 AUDIO
    TITLE "1Q_t_1119-1128_60"
    INDEX 01 01:13:50
  TRACK 61 AUDIO
    TITLE "1Q_t_1119-1128_61"
    INDEX 01 01:14:58
  TRACK 62 AUDIO
    TITLE "1Q_t_1119-1128_62"
    INDEX 01 01:14:64
  TRACK 63 AUDIO
    TITLE "1Q_t_1119-1128_63"
    INDEX 01 01:20:03
